<svg width="24" height="24" viewBox="0 0 24 24" fill="none" xmlns="http://www.w3.org/2000/svg">
<g clip-path="url(#clip0_188_126)">
<path d="M8.172 12L2.16 15.9144V8.08561L8.172 12ZM15.828 12L21.84 15.9144V8.08561L15.828 12ZM14.9496 12.5736L12.2616 14.3232C12.1824 14.3736 12.0912 14.4 12 14.4C11.9088 14.4 11.8176 14.3736 11.7384 14.3232L9.0504 12.5736L2.5584 16.8L2.1816 17.0448C2.2992 17.7216 2.8896 18.24 3.6 18.24H20.4C21.1104 18.24 21.7008 17.724 21.8184 17.0448L21.4392 16.8L14.9496 12.5736ZM12 13.3464L21.4392 7.20001L21.8184 6.95521C21.7008 6.27601 21.1104 5.76001 20.4 5.76001H3.6C2.8896 5.76001 2.2992 6.27841 2.1816 6.95521L2.5584 7.20001L12 13.3464Z" fill="white"/>
</g>
<defs>
<clipPath id="clip0_188_126">
<rect width="24" height="24" fill="white"/>
</clipPath>
</defs>
</svg>
