<svg width="48" height="48" viewBox="0 0 48 48" fill="none" xmlns="http://www.w3.org/2000/svg">
<path d="M33.2 28C32.8 27.8 30.2 26.6 29.8 26.4C29.4 26.2 29 26.2 28.6 26.6C28.2 27 27.4 28.2 27 28.6C26.8 29 26.4 28.9999 26 28.7999C24.6 28.1999 23.2 27.4 22 26.4C21 25.4 20 24.2 19.2 23C19 22.6 19.2 22.2 19.4 22C19.6 21.8 19.8 21.4 20.2 21.2C20.4 21 20.6 20.6 20.6 20.4C20.8 20.2 20.8 19.8 20.6 19.6C20.4 19.4 19.4 17 19 16C18.8 14.6 18.4 14.6 18 14.6H17C16.6 14.6 16 15 15.8 15.2C14.6 16.4 14 17.8 14 19.4C14.2 21.2 14.8 23 16 24.6C18.2 27.8 21 30.4 24.4 32C25.4 32.4 26.2 32.8 27.2 33C28.2 33.4 29.2 33.4 30.4 33.2C31.8 33 33 31.9999 33.8 30.7999C34.2 29.9999 34.2 29.2 34 28.4L33.2 28ZM38.2 9.79995C30.4 1.99995 17.8 1.99995 10 9.79995C3.6 16.2 2.4 25.9999 6.8 33.7999L4 44L14.6 41.2C17.6 42.8 20.8 43.5999 24 43.5999C35 43.5999 43.8 34.7999 43.8 23.7999C44 18.5999 41.8 13.6 38.2 9.79995ZM32.8 37.7999C30.2 39.3999 27.2 40.4 24 40.4C21 40.4 18.2 39.6 15.6 38.2L15 37.7999L8.8 39.4L10.4 33.4L10 32.7999C5.2 24.7999 7.6 14.8 15.4 9.79995C23.2 4.79995 33.2 7.39995 38 15C42.8 22.8 40.6 32.9999 32.8 37.7999Z" fill="white"/>
</svg>
